<svg width="49" height="48" viewBox="0 0 49 48" fill="none" xmlns="http://www.w3.org/2000/svg">
<rect width="49" height="48" rx="24" fill="#EAEAEA"/>
<path d="M22.5 30C22.7652 30 23.0196 29.8946 23.2071 29.7071C23.3946 29.5196 23.5 29.2652 23.5 29V23C23.5 22.7348 23.3946 22.4804 23.2071 22.2929C23.0196 22.1054 22.7652 22 22.5 22C22.2348 22 21.9804 22.1054 21.7929 22.2929C21.6054 22.4804 21.5 22.7348 21.5 23V29C21.5 29.2652 21.6054 29.5196 21.7929 29.7071C21.9804 29.8946 22.2348 30 22.5 30ZM32.5 18H28.5V17C28.5 16.2044 28.1839 15.4413 27.6213 14.8787C27.0587 14.3161 26.2956 14 25.5 14H23.5C22.7044 14 21.9413 14.3161 21.3787 14.8787C20.8161 15.4413 20.5 16.2044 20.5 17V18H16.5C16.2348 18 15.9804 18.1054 15.7929 18.2929C15.6054 18.4804 15.5 18.7348 15.5 19C15.5 19.2652 15.6054 19.5196 15.7929 19.7071C15.9804 19.8946 16.2348 20 16.5 20H17.5V31C17.5 31.7956 17.8161 32.5587 18.3787 33.1213C18.9413 33.6839 19.7044 34 20.5 34H28.5C29.2956 34 30.0587 33.6839 30.6213 33.1213C31.1839 32.5587 31.5 31.7956 31.5 31V20H32.5C32.7652 20 33.0196 19.8946 33.2071 19.7071C33.3946 19.5196 33.5 19.2652 33.5 19C33.5 18.7348 33.3946 18.4804 33.2071 18.2929C33.0196 18.1054 32.7652 18 32.5 18ZM22.5 17C22.5 16.7348 22.6054 16.4804 22.7929 16.2929C22.9804 16.1054 23.2348 16 23.5 16H25.5C25.7652 16 26.0196 16.1054 26.2071 16.2929C26.3946 16.4804 26.5 16.7348 26.5 17V18H22.5V17ZM29.5 31C29.5 31.2652 29.3946 31.5196 29.2071 31.7071C29.0196 31.8946 28.7652 32 28.5 32H20.5C20.2348 32 19.9804 31.8946 19.7929 31.7071C19.6054 31.5196 19.5 31.2652 19.5 31V20H29.5V31ZM26.5 30C26.7652 30 27.0196 29.8946 27.2071 29.7071C27.3946 29.5196 27.5 29.2652 27.5 29V23C27.5 22.7348 27.3946 22.4804 27.2071 22.2929C27.0196 22.1054 26.7652 22 26.5 22C26.2348 22 25.9804 22.1054 25.7929 22.2929C25.6054 22.4804 25.5 22.7348 25.5 23V29C25.5 29.2652 25.6054 29.5196 25.7929 29.7071C25.9804 29.8946 26.2348 30 26.5 30Z" fill="#979797"/>
</svg>
