<svg width="29" height="28" viewBox="0 0 29 28" fill="none" xmlns="http://www.w3.org/2000/svg">
<rect x="0.333008" width="28" height="28" rx="14" fill="#EAEAEA"/>
<path d="M11.333 21.5C10.0691 21.5 9.00301 21.0661 8.13467 20.1983C7.26634 19.3306 6.83245 18.2644 6.83301 17C6.83301 16.4722 6.92329 15.9583 7.10384 15.4583C7.2844 14.9583 7.54134 14.5069 7.87467 14.1042L10.833 10.5417L8.81218 6.5H19.8538L17.833 10.5417L20.7913 14.1042C21.1247 14.5069 21.3816 14.9583 21.5622 15.4583C21.7427 15.9583 21.833 16.4722 21.833 17C21.833 18.2639 21.3955 19.33 20.5205 20.1983C19.6455 21.0667 18.583 21.5006 17.333 21.5H11.333ZM14.333 17.3333C13.8747 17.3333 13.4825 17.1703 13.1563 16.8442C12.8302 16.5181 12.6669 16.1256 12.6663 15.6667C12.6658 15.2078 12.8291 14.8156 13.1563 14.49C13.4836 14.1644 13.8758 14.0011 14.333 14C14.7902 13.9989 15.1827 14.1622 15.5105 14.49C15.8383 14.8178 16.0013 15.21 15.9997 15.6667C15.998 16.1233 15.835 16.5158 15.5105 16.8442C15.1861 17.1725 14.7936 17.3356 14.333 17.3333ZM12.3538 9.83333H16.3122L17.1455 8.16667H11.5205L12.3538 9.83333ZM11.333 19.8333H17.333C18.1247 19.8333 18.795 19.5592 19.3438 19.0108C19.8927 18.4625 20.1669 17.7922 20.1663 17C20.1663 16.6667 20.1072 16.3439 19.9888 16.0317C19.8705 15.7194 19.7075 15.4381 19.4997 15.1875L16.4372 11.5H12.2497L9.16634 15.1667C8.95801 15.4167 8.79495 15.7014 8.67717 16.0208C8.5594 16.3403 8.50023 16.6667 8.49968 17C8.49968 17.7917 8.77412 18.4619 9.32301 19.0108C9.8719 19.5597 10.5419 19.8339 11.333 19.8333Z" fill="#979797"/>
</svg>
