<svg width="28" height="28" viewBox="0 0 28 28" fill="none" xmlns="http://www.w3.org/2000/svg">
<rect width="28" height="28" rx="14" fill="#EAEAEA"/>
<path d="M19.8337 7.33366H18.167V6.50033C18.167 6.27931 18.0792 6.06735 17.9229 5.91107C17.7666 5.75479 17.5547 5.66699 17.3337 5.66699C17.1126 5.66699 16.9007 5.75479 16.7444 5.91107C16.5881 6.06735 16.5003 6.27931 16.5003 6.50033V7.33366H11.5003V6.50033C11.5003 6.27931 11.4125 6.06735 11.2562 5.91107C11.1 5.75479 10.888 5.66699 10.667 5.66699C10.446 5.66699 10.234 5.75479 10.0777 5.91107C9.92146 6.06735 9.83366 6.27931 9.83366 6.50033V7.33366H8.16699C7.50395 7.33366 6.86807 7.59705 6.39923 8.06589C5.93038 8.53473 5.66699 9.17062 5.66699 9.83366V19.8337C5.66699 20.4967 5.93038 21.1326 6.39923 21.6014C6.86807 22.0703 7.50395 22.3337 8.16699 22.3337H19.8337C20.4967 22.3337 21.1326 22.0703 21.6014 21.6014C22.0703 21.1326 22.3337 20.4967 22.3337 19.8337V9.83366C22.3337 9.17062 22.0703 8.53473 21.6014 8.06589C21.1326 7.59705 20.4967 7.33366 19.8337 7.33366ZM20.667 19.8337C20.667 20.0547 20.5792 20.2666 20.4229 20.4229C20.2666 20.5792 20.0547 20.667 19.8337 20.667H8.16699C7.94598 20.667 7.73402 20.5792 7.57774 20.4229C7.42146 20.2666 7.33366 20.0547 7.33366 19.8337V14.0003H20.667V19.8337ZM20.667 12.3337H7.33366V9.83366C7.33366 9.61264 7.42146 9.40068 7.57774 9.2444C7.73402 9.08812 7.94598 9.00033 8.16699 9.00033H9.83366V9.83366C9.83366 10.0547 9.92146 10.2666 10.0777 10.4229C10.234 10.5792 10.446 10.667 10.667 10.667C10.888 10.667 11.1 10.5792 11.2562 10.4229C11.4125 10.2666 11.5003 10.0547 11.5003 9.83366V9.00033H16.5003V9.83366C16.5003 10.0547 16.5881 10.2666 16.7444 10.4229C16.9007 10.5792 17.1126 10.667 17.3337 10.667C17.5547 10.667 17.7666 10.5792 17.9229 10.4229C18.0792 10.2666 18.167 10.0547 18.167 9.83366V9.00033H19.8337C20.0547 9.00033 20.2666 9.08812 20.4229 9.2444C20.5792 9.40068 20.667 9.61264 20.667 9.83366V12.3337Z" fill="#979797"/>
</svg>
