<svg width="16" height="16" viewBox="0 0 16 16" fill="none" xmlns="http://www.w3.org/2000/svg">
<path d="M11.312 2.55866C11.5034 2.6673 11.7299 2.69586 11.9422 2.63809C12.1546 2.58033 12.3354 2.44093 12.4454 2.25032C12.5363 2.08979 12.678 1.96399 12.8482 1.89264C13.0183 1.8213 13.2074 1.80845 13.3856 1.85611C13.5639 1.90378 13.7213 2.00925 13.8331 2.156C13.945 2.30275 14.005 2.48248 14.0037 2.66699C14.0037 2.88801 13.9159 3.09997 13.7596 3.25625C13.6033 3.41253 13.3914 3.50032 13.1704 3.50032C12.9493 3.50032 12.7374 3.58812 12.5811 3.7444C12.4248 3.90068 12.337 4.11264 12.337 4.33366C12.337 4.55467 12.4248 4.76663 12.5811 4.92291C12.7374 5.07919 12.9493 5.16699 13.1704 5.16699C13.6091 5.16671 14.0401 5.05095 14.42 4.83135C14.7998 4.61175 15.1152 4.29605 15.3344 3.91595C15.5536 3.53586 15.6689 3.10476 15.6688 2.66599C15.6686 2.22722 15.5529 1.79622 15.3334 1.4163C15.1139 1.03638 14.7983 0.720924 14.4182 0.501628C14.0382 0.282333 13.6071 0.166922 13.1684 0.166992C12.7296 0.167062 12.2986 0.282611 11.9186 0.502029C11.5386 0.721446 11.2231 1.037 11.0037 1.41699C10.9486 1.5121 10.9129 1.61718 10.8985 1.72616C10.8842 1.83514 10.8916 1.94588 10.9203 2.05199C10.9489 2.15811 10.9983 2.25751 11.0655 2.34447C11.1328 2.43142 11.2165 2.50422 11.312 2.55866ZM14.8954 8.50033C14.6766 8.47193 14.4555 8.53143 14.2806 8.66577C14.1056 8.80011 13.9911 8.99833 13.962 9.21699C13.7872 10.6296 13.1018 11.9296 12.0351 12.872C10.9683 13.8144 9.59378 14.3343 8.17036 14.3337H3.51203L4.0537 13.792C4.20891 13.6359 4.29602 13.4246 4.29602 13.2045C4.29602 12.9843 4.20891 12.7731 4.0537 12.617C3.24115 11.8013 2.68818 10.7633 2.46444 9.63388C2.2407 8.50446 2.35619 7.33409 2.79636 6.27018C3.23654 5.20628 3.98171 4.29642 4.93802 3.65523C5.89433 3.01404 7.019 2.67019 8.17036 2.66699C8.39138 2.66699 8.60334 2.57919 8.75962 2.42291C8.9159 2.26663 9.0037 2.05467 9.0037 1.83366C9.0037 1.61264 8.9159 1.40068 8.75962 1.2444C8.60334 1.08812 8.39138 1.00033 8.17036 1.00033C6.76139 1.0062 5.38257 1.40886 4.19186 2.16215C3.00115 2.91545 2.04672 3.98893 1.43792 5.25959C0.82911 6.53026 0.59055 7.94673 0.749568 9.34671C0.908586 10.7467 1.45875 12.0736 2.33703 13.1753L0.91203 14.5753C0.796399 14.6925 0.718069 14.8413 0.686924 15.003C0.655779 15.1646 0.673214 15.3319 0.73703 15.4837C0.799547 15.6358 0.905712 15.7661 1.04215 15.8581C1.17858 15.95 1.33918 15.9995 1.5037 16.0003H8.17036C9.99657 16.0006 11.7601 15.3345 13.1302 14.1271C14.5003 12.9196 15.3827 11.2538 15.612 9.44199C15.6273 9.33304 15.6208 9.22215 15.593 9.11571C15.5651 9.00928 15.5165 8.90941 15.4499 8.82187C15.3832 8.73432 15.2999 8.66084 15.2048 8.60565C15.1096 8.55046 15.0044 8.51467 14.8954 8.50033ZM13.487 6.05866C13.3353 5.99154 13.167 5.97123 13.0037 6.00033L12.8537 6.05033L12.7037 6.12533L12.5787 6.23366C12.5037 6.31045 12.4443 6.401 12.4037 6.50033C12.3544 6.60427 12.3315 6.71876 12.337 6.83366C12.3346 6.9448 12.3544 7.0553 12.3954 7.15866C12.4385 7.25867 12.5007 7.34927 12.5787 7.42532C12.6566 7.50256 12.7489 7.56366 12.8504 7.60513C12.952 7.6466 13.0607 7.66763 13.1704 7.66699C13.3914 7.66699 13.6033 7.57919 13.7596 7.42291C13.9159 7.26663 14.0037 7.05467 14.0037 6.83366C14.0065 6.72435 13.9837 6.61589 13.937 6.51699C13.8475 6.31675 13.6873 6.15654 13.487 6.06699V6.05866Z" fill="#252423"/>
</svg>
