<svg width="32" height="32" viewBox="0 0 32 32" fill="none" xmlns="http://www.w3.org/2000/svg">
<path d="M13.4264 3.76044L4.18637 11.1604C3.14637 11.9871 2.4797 13.7338 2.70637 15.0405L4.4797 25.6538C4.7997 27.5471 6.61303 29.0804 8.53303 29.0804H23.4664C25.373 29.0804 27.1997 27.5338 27.5197 25.6538L29.293 15.0405C29.5064 13.7338 28.8397 11.9871 27.813 11.1604L18.573 3.77379C17.1464 2.62712 14.8397 2.62711 13.4264 3.76044Z" stroke="#F05A25" stroke-width="1.5" stroke-linecap="round" stroke-linejoin="round"/>
<path opacity="0.4" d="M15.9993 20.6667C17.8403 20.6667 19.3327 19.1743 19.3327 17.3333C19.3327 15.4924 17.8403 14 15.9993 14C14.1584 14 12.666 15.4924 12.666 17.3333C12.666 19.1743 14.1584 20.6667 15.9993 20.6667Z" stroke="#F05A25" stroke-width="1.5" stroke-linecap="round" stroke-linejoin="round"/>
</svg>
