<svg width="24" height="24" viewBox="0 0 24 24" fill="none" xmlns="http://www.w3.org/2000/svg">
<path d="M5 20.5H19C19.1326 20.5 19.2598 20.5527 19.3535 20.6465C19.4473 20.7402 19.5 20.8674 19.5 21C19.5 21.1326 19.4473 21.2598 19.3535 21.3535C19.2597 21.4473 19.1326 21.5 19 21.5H5C4.90055 21.5 4.8042 21.4704 4.72266 21.416L4.64648 21.3535C4.55274 21.2598 4.5 21.1326 4.5 21C4.50002 20.9006 4.52962 20.8042 4.58398 20.7227L4.64648 20.6465C4.74025 20.5527 4.86741 20.5 5 20.5ZM12 2.51758C13.2442 2.51758 14.4607 2.88683 15.4951 3.57812C16.5294 4.26941 17.3356 5.25193 17.8115 6.40137C18.2577 7.47905 18.3948 8.65805 18.21 9.80664L18.1689 10.0361C17.9411 11.18 17.4002 12.2366 16.6084 13.0889L16.4463 13.2568L12.3564 17.3574L12.3555 17.3584C12.309 17.4053 12.2533 17.4424 12.1924 17.4678C12.1315 17.4931 12.066 17.5059 12 17.5059C11.934 17.5059 11.8685 17.4931 11.8076 17.4678C11.7771 17.4551 11.748 17.4393 11.7207 17.4209L11.6445 17.3584L11.6436 17.3574L7.55371 13.2568L7.3916 13.0889C6.6526 12.2934 6.1322 11.3199 5.88086 10.2637L5.83105 10.0361C5.58809 8.81594 5.71253 7.55088 6.18848 6.40137C6.66441 5.25193 7.47056 4.26941 8.50488 3.57812C9.53934 2.88683 10.7558 2.51758 12 2.51758ZM12 3.50098C11.0938 3.50098 10.205 3.73308 9.41699 4.17188L9.08594 4.37207L9.08398 4.37305C8.50736 4.75538 8.01143 5.24644 7.62402 5.81738L7.46484 6.06738C7.05854 6.74466 6.80811 7.50389 6.73242 8.29004C6.66348 8.97206 6.72886 9.6599 6.92285 10.3154L7.01367 10.5938C7.27741 11.3315 7.7017 12.0019 8.25684 12.5547V12.5537L12 16.2969L15.7432 12.5537L15.7451 12.5527C16.2299 12.0647 16.6144 11.4875 16.8789 10.8545L16.9844 10.5801C17.2469 9.83924 17.3428 9.04956 17.2637 8.26758C17.1845 7.48564 16.9329 6.7308 16.5273 6.05762C16.1724 5.46855 15.7064 4.95486 15.1572 4.54395L14.917 4.37402L14.9141 4.37207L14.583 4.17188C13.795 3.73308 12.9062 3.50098 12 3.50098ZM11.4258 7.41406C11.6999 7.30053 12.002 7.27122 12.293 7.3291C12.5837 7.38701 12.8509 7.52964 13.0605 7.73926C13.2703 7.94904 13.4128 8.21684 13.4707 8.50781C13.5285 8.79869 13.4992 9.10003 13.3857 9.37402C13.2722 9.64811 13.0797 9.88205 12.833 10.0469C12.5863 10.2117 12.2967 10.2998 12 10.2998C11.6519 10.2998 11.3167 10.1786 11.0498 9.95996L10.9395 9.86035C10.6582 9.57906 10.5 9.19756 10.5 8.7998C10.5001 8.50323 10.5882 8.21339 10.7529 7.9668C10.9177 7.72016 11.1517 7.5276 11.4258 7.41406Z" fill="#979797" stroke="#979797"/>
</svg>
