<svg width="24" height="24" viewBox="0 0 24 24" fill="none" xmlns="http://www.w3.org/2000/svg">
<path d="M2 21.5H22C22.1326 21.5 22.2597 21.5527 22.3535 21.6465C22.4473 21.7403 22.5 21.8674 22.5 22C22.5 22.1326 22.4473 22.2597 22.3535 22.3535C22.2597 22.4473 22.1326 22.5 22 22.5H2C1.90056 22.5 1.80419 22.4704 1.72266 22.416L1.64648 22.3535C1.55272 22.2597 1.5 22.1326 1.5 22C1.5 21.9006 1.52963 21.8042 1.58398 21.7227L1.64648 21.6465C1.74025 21.5527 1.86739 21.5 2 21.5ZM2 17.5H22C22.1326 17.5 22.2597 17.5527 22.3535 17.6465C22.4473 17.7403 22.5 17.8674 22.5 18C22.5 18.1326 22.4473 18.2597 22.3535 18.3535C22.2597 18.4473 22.1326 18.5 22 18.5H2C1.90056 18.5 1.80419 18.4704 1.72266 18.416L1.64648 18.3535C1.55272 18.2597 1.5 18.1326 1.5 18C1.5 17.9006 1.52963 17.8042 1.58398 17.7227L1.64648 17.6465C1.74025 17.5527 1.86739 17.5 2 17.5ZM4 1.5H20C20.5801 1.5 21.1391 1.70197 21.584 2.06641L21.7676 2.23242C22.2364 2.70126 22.5 3.33696 22.5 4V12C22.5 12.663 22.2364 13.2987 21.7676 13.7676C21.2987 14.2364 20.663 14.5 20 14.5H4C3.41989 14.5 2.86086 14.298 2.41602 13.9336L2.23242 13.7676C1.76358 13.2987 1.5 12.663 1.5 12V4L1.5127 3.75293C1.5614 3.26244 1.75404 2.7973 2.06641 2.41602L2.23242 2.23242C2.64265 1.82219 3.18063 1.56952 3.75293 1.5127L4 1.5ZM4 2.5C3.60218 2.5 3.22076 2.65815 2.93945 2.93945C2.65815 3.22076 2.5 3.60218 2.5 4V12C2.5 12.3978 2.65815 12.7792 2.93945 13.0605C3.22076 13.3419 3.60217 13.5 4 13.5H20C20.3978 13.5 20.7792 13.3419 21.0605 13.0605C21.3419 12.7792 21.5 12.3978 21.5 12V4C21.5 3.60218 21.3419 3.22076 21.0605 2.93945C20.7792 2.65815 20.3978 2.5 20 2.5H4ZM12 5.5C12.663 5.5 13.2987 5.76358 13.7676 6.23242C14.2364 6.70126 14.5 7.33696 14.5 8C14.5 8.4943 14.3536 8.97763 14.0791 9.38867C13.8045 9.7997 13.4137 10.1203 12.957 10.3096C12.5004 10.4987 11.9975 10.5485 11.5127 10.4521C11.0277 10.3557 10.5821 10.1172 10.2324 9.76758C9.92658 9.46173 9.70582 9.08276 9.59082 8.66797L9.54785 8.4873C9.45151 8.00249 9.50127 7.49965 9.69043 7.04297C9.87967 6.58629 10.2003 6.19554 10.6113 5.9209C11.0224 5.64636 11.5057 5.5 12 5.5ZM12.5742 6.61426C12.3001 6.50073 11.998 6.47142 11.707 6.5293C11.4162 6.58723 11.1491 6.72977 10.9395 6.93945C10.7298 7.14913 10.5872 7.41622 10.5293 7.70703C10.4714 7.998 10.5007 8.30013 10.6143 8.57422C10.7278 8.84823 10.9204 9.08229 11.167 9.24707C11.4136 9.41182 11.7034 9.5 12 9.5C12.3978 9.5 12.7792 9.34185 13.0605 9.06055C13.3419 8.77924 13.5 8.39782 13.5 8C13.5 7.7034 13.4118 7.41363 13.2471 7.16699C13.0823 6.92038 12.8482 6.7278 12.5742 6.61426ZM6 7.5C6.13261 7.5 6.25975 7.55272 6.35352 7.64648C6.44728 7.74025 6.5 7.86739 6.5 8C6.5 8.09872 6.47077 8.19521 6.41602 8.27734C6.36109 8.35955 6.28274 8.42407 6.19141 8.46191C6.12285 8.49031 6.04909 8.50262 5.97559 8.49902L5.90234 8.49023C5.80541 8.47092 5.71638 8.42341 5.64648 8.35352C5.57659 8.28362 5.52908 8.19459 5.50977 8.09766C5.49047 8.00067 5.50024 7.89996 5.53809 7.80859C5.57593 7.71726 5.64045 7.63891 5.72266 7.58398C5.80479 7.52923 5.90128 7.5 6 7.5ZM18 7.5C18.1326 7.5 18.2597 7.55272 18.3535 7.64648C18.4473 7.74025 18.5 7.86739 18.5 8C18.5 8.09872 18.4708 8.19522 18.416 8.27734C18.3611 8.35955 18.2827 8.42407 18.1914 8.46191C18.1229 8.49031 18.0491 8.50262 17.9756 8.49902L17.9023 8.49023C17.8054 8.47092 17.7164 8.42341 17.6465 8.35352C17.5766 8.28362 17.5291 8.1946 17.5098 8.09766C17.4905 8.00067 17.5002 7.89996 17.5381 7.80859C17.5759 7.71726 17.6405 7.63891 17.7227 7.58398C17.8048 7.52923 17.9013 7.5 18 7.5Z" fill="#979797" stroke="#979797"/>
</svg>
