<svg width="32" height="32" viewBox="0 0 32 32" fill="none" xmlns="http://www.w3.org/2000/svg">
<path opacity="0.4" d="M15.999 18.668H17.3324C18.799 18.668 19.999 17.468 19.999 16.0013V2.66797H7.99902C5.99902 2.66797 4.25237 3.77462 3.3457 5.40129" stroke="#8C8C8C" stroke-width="1.5" stroke-linecap="round" stroke-linejoin="round"/>
<path d="M2.66602 22.668C2.66602 24.8813 4.45268 26.668 6.66602 26.668H7.99935C7.99935 25.2013 9.19935 24.0013 10.666 24.0013C12.1327 24.0013 13.3327 25.2013 13.3327 26.668H18.666C18.666 25.2013 19.866 24.0013 21.3327 24.0013C22.7993 24.0013 23.9993 25.2013 23.9993 26.668H25.3327C27.546 26.668 29.3327 24.8813 29.3327 22.668V18.668H25.3327C24.5993 18.668 23.9993 18.068 23.9993 17.3346V13.3346C23.9993 12.6013 24.5993 12.0013 25.3327 12.0013H27.0527L24.7727 8.01465C24.2927 7.18798 23.4127 6.66797 22.4527 6.66797H19.9993V16.0013C19.9993 17.468 18.7993 18.668 17.3327 18.668H15.9993" stroke="#8C8C8C" stroke-width="1.5" stroke-linecap="round" stroke-linejoin="round"/>
<path d="M10.6667 29.3333C12.1394 29.3333 13.3333 28.1394 13.3333 26.6667C13.3333 25.1939 12.1394 24 10.6667 24C9.19391 24 8 25.1939 8 26.6667C8 28.1394 9.19391 29.3333 10.6667 29.3333Z" stroke="#8C8C8C" stroke-width="1.5" stroke-linecap="round" stroke-linejoin="round"/>
<path d="M21.3327 29.3333C22.8054 29.3333 23.9993 28.1394 23.9993 26.6667C23.9993 25.1939 22.8054 24 21.3327 24C19.8599 24 18.666 25.1939 18.666 26.6667C18.666 28.1394 19.8599 29.3333 21.3327 29.3333Z" stroke="#8C8C8C" stroke-width="1.5" stroke-linecap="round" stroke-linejoin="round"/>
<path d="M29.3333 16V18.6667H25.3333C24.6 18.6667 24 18.0667 24 17.3333V13.3333C24 12.6 24.6 12 25.3333 12H27.0533L29.3333 16Z" stroke="#8C8C8C" stroke-width="1.5" stroke-linecap="round" stroke-linejoin="round"/>
<path d="M2.66602 10.668H10.666" stroke="#8C8C8C" stroke-width="1.5" stroke-linecap="round" stroke-linejoin="round"/>
<path d="M2.66602 14.668H7.99935" stroke="#8C8C8C" stroke-width="1.5" stroke-linecap="round" stroke-linejoin="round"/>
<path d="M2.66602 18.668H5.33268" stroke="#8C8C8C" stroke-width="1.5" stroke-linecap="round" stroke-linejoin="round"/>
</svg>
