<svg width="20" height="20" viewBox="0 0 20 20" fill="none" xmlns="http://www.w3.org/2000/svg">
<path d="M9.9974 10.8327C10.4576 10.8327 10.8307 10.4596 10.8307 9.99935C10.8307 9.53911 10.4576 9.16602 9.9974 9.16602C9.53716 9.16602 9.16406 9.53911 9.16406 9.99935C9.16406 10.4596 9.53716 10.8327 9.9974 10.8327Z" fill="#979797" stroke="#979797" stroke-width="2" stroke-linecap="round" stroke-linejoin="round"/>
<path d="M15.8333 10.8327C16.2936 10.8327 16.6667 10.4596 16.6667 9.99935C16.6667 9.53911 16.2936 9.16602 15.8333 9.16602C15.3731 9.16602 15 9.53911 15 9.99935C15 10.4596 15.3731 10.8327 15.8333 10.8327Z" stroke="#979797" stroke-width="2" stroke-linecap="round" stroke-linejoin="round"/>
<path d="M4.16927 10.8327C4.62951 10.8327 5.0026 10.4596 5.0026 9.99935C5.0026 9.53911 4.62951 9.16602 4.16927 9.16602C3.70903 9.16602 3.33594 9.53911 3.33594 9.99935C3.33594 10.4596 3.70903 10.8327 4.16927 10.8327Z" stroke="#979797" stroke-width="2" stroke-linecap="round" stroke-linejoin="round"/>
</svg>
