<svg width="20" height="20" viewBox="0 0 20 20" fill="none" xmlns="http://www.w3.org/2000/svg">
<path d="M7.16732 18.75L5.58398 16.0833L2.58398 15.4167L2.87565 12.3333L0.833984 10L2.87565 7.66667L2.58398 4.58333L5.58398 3.91667L7.16732 1.25L10.0007 2.45833L12.834 1.25L14.4173 3.91667L17.4173 4.58333L17.1257 7.66667L19.1673 10L17.1257 12.3333L17.4173 15.4167L14.4173 16.0833L12.834 18.75L10.0007 17.5417L7.16732 18.75ZM7.87565 16.625L10.0007 15.7083L12.1673 16.625L13.334 14.625L15.6257 14.0833L15.4173 11.75L16.959 10L15.4173 8.20833L15.6257 5.875L13.334 5.375L12.1257 3.375L10.0007 4.29167L7.83398 3.375L6.66732 5.375L4.37565 5.875L4.58398 8.20833L3.04232 10L4.58398 11.75L4.37565 14.125L6.66732 14.625L7.87565 16.625ZM9.12565 12.9583L13.834 8.25L12.6673 7.04167L9.12565 10.5833L7.33398 8.83333L6.16732 10L9.12565 12.9583Z" fill="#615D5D"/>
</svg>
