<svg width="104" height="30" viewBox="0 0 104 30" fill="none" xmlns="http://www.w3.org/2000/svg">
<g clip-path="url(#clip0_1668_30959)">
<path d="M5.64033 0.519043H20.0384V7.78736H0.0454102V6.08709C0.0454102 3.01104 2.54943 0.519043 5.64033 0.519043Z" fill="#F05A25"/>
<path d="M14.4435 9.69531H0.0454102V16.9636H20.0319V15.2634C20.0319 12.1873 17.5279 9.69531 14.437 9.69531H14.4435Z" fill="#F05A25"/>
<path d="M7.86418 28.1647H5.59491C2.50402 28.1647 0 25.6727 0 22.5966V18.9819H7.86418V28.1647Z" fill="#F05A25"/>
<path d="M57.0122 6.67773H67.2435V9.30601H59.9596V10.0458V12.6806H66.4544V15.3089H59.9596V21.7076H57.0122V6.67773Z" fill="#F4F4F4"/>
<path d="M28.9982 6.67773H39.2295V9.30601H31.9522L31.9391 10.0458V12.6806H38.4339V15.3089H31.9391V21.7076H28.9917V6.67773H28.9982Z" fill="#F4F4F4"/>
<path d="M40.4297 6.67773H43.0706V21.7011H40.4297V6.67773Z" fill="#F4F4F4"/>
<path d="M48.3981 15.9188L44.5443 10.7466H47.7591L49.9371 14.0303L52.0759 10.7466H55.3103L51.4564 15.9188L55.7276 21.701H52.4932L49.9371 17.8267L47.3613 21.701H44.127L48.3981 15.9188Z" fill="#F4F4F4"/>
<path d="M68.4824 6.67773H71.1234V21.7011H68.4824V6.67773Z" fill="#F4F4F4"/>
<path d="M72.271 16.2236C72.271 12.7647 74.6446 10.4414 78.2376 10.4414C81.8306 10.4414 84.2042 12.7647 84.2042 16.2236V16.7298L83.9825 16.9504H74.9576C75.1989 18.6832 76.5226 19.8188 78.2376 19.8188C79.5353 19.8188 80.7481 19.0725 81.2568 17.9758H83.9434C83.213 20.3834 80.9242 22.0058 78.2441 22.0058C74.6576 22.0058 72.2775 19.6826 72.2775 16.2236H72.271ZM81.3415 14.757C80.8329 13.4007 79.7113 12.6349 78.2376 12.6349C76.7639 12.6349 75.6423 13.4007 75.1337 14.757H81.3415Z" fill="#F4F4F4"/>
<path d="M84.915 16.2236C84.915 12.7647 87.2886 10.4414 90.8816 10.4414C94.4746 10.4414 96.8483 12.7647 96.8483 16.2236V16.7298L96.6265 16.9504H87.6016C87.8429 18.6832 89.1666 19.8188 90.8816 19.8188C92.1793 19.8188 93.3922 19.0725 93.9008 17.9758H96.5874C95.8636 20.3834 93.5748 22.0058 90.8882 22.0058C87.3017 22.0058 84.9216 19.6826 84.9216 16.2236H84.915ZM93.9856 14.757C93.477 13.4007 92.3554 12.6349 90.8816 12.6349C89.4079 12.6349 88.2863 13.4007 87.7777 14.757H93.9856Z" fill="#F4F4F4"/>
<path d="M98.4784 18.8977V12.9403H96.7178V10.7468H98.4784V6.67139H101.119V10.7468H103.891V11.7722C103.891 12.4147 103.369 12.9403 102.717 12.9403H101.106V14.0306V18.8977C101.106 19.4429 101.504 19.8193 102.078 19.8193H103.271L103.995 21.7012C103.597 21.8764 102.847 22.0062 102.124 22.0062C99.9195 22.0062 98.4719 20.7602 98.4719 18.8977H98.4784Z" fill="#F4F4F4"/>
</g>
<defs>
<clipPath id="clip0_1668_30959">
<rect width="103.75" height="27.7123" fill="white" transform="translate(0 0.519043)"/>
</clipPath>
</defs>
</svg>
