<svg width="16" height="16" viewBox="0 0 16 16" fill="none" xmlns="http://www.w3.org/2000/svg">
<g id="icon / search">
<path id="icon" fill-rule="evenodd" clip-rule="evenodd" d="M7.33398 1.33203C4.02028 1.33203 1.33398 4.01832 1.33398 7.33203C1.33398 10.6457 4.02028 13.332 7.33398 13.332C8.75066 13.332 10.0527 12.841 11.0791 12.02L13.5292 14.4701C13.7896 14.7305 14.2117 14.7305 14.4721 14.4701C14.7324 14.2098 14.7324 13.7876 14.4721 13.5273L12.0219 11.0772C12.843 10.0507 13.334 8.74871 13.334 7.33203C13.334 4.01832 10.6477 1.33203 7.33398 1.33203ZM2.66732 7.33203C2.66732 4.7547 4.75666 2.66536 7.33398 2.66536C9.91131 2.66536 12.0007 4.7547 12.0007 7.33203C12.0007 9.90936 9.91131 11.9987 7.33398 11.9987C4.75666 11.9987 2.66732 9.90936 2.66732 7.33203Z" fill="#515D65"/>
</g>
</svg>
