<svg width="20" height="20" viewBox="0 0 20 20" fill="none" xmlns="http://www.w3.org/2000/svg">
<path d="M17.5005 4.98307C14.7255 4.70807 11.9338 4.56641 9.15049 4.56641C7.50049 4.56641 5.85049 4.64974 4.20049 4.81641L2.50049 4.98307" stroke="#F05A25" stroke-width="1.5" stroke-linecap="round" stroke-linejoin="round"/>
<path opacity="0.34" d="M7.08398 4.14297L7.26732 3.0513C7.40065 2.25964 7.50065 1.66797 8.90898 1.66797H11.0923C12.5007 1.66797 12.609 2.29297 12.734 3.05964L12.9173 4.14297" stroke="#F05A25" stroke-width="1.5" stroke-linecap="round" stroke-linejoin="round"/>
<path d="M15.7087 7.61719L15.167 16.0089C15.0753 17.3172 15.0003 18.3339 12.6753 18.3339H7.32533C5.00033 18.3339 4.92533 17.3172 4.83366 16.0089L4.29199 7.61719" stroke="#F05A25" stroke-width="1.5" stroke-linecap="round" stroke-linejoin="round"/>
<path opacity="0.34" d="M8.60889 13.75H11.3839" stroke="#F05A25" stroke-width="1.5" stroke-linecap="round" stroke-linejoin="round"/>
<path opacity="0.34" d="M7.91602 10.418H12.0827" stroke="#F05A25" stroke-width="1.5" stroke-linecap="round" stroke-linejoin="round"/>
</svg>
