<svg width="24" height="24" viewBox="0 0 24 24" fill="none" xmlns="http://www.w3.org/2000/svg">
<path d="M13.4702 7.53032C13.6108 7.67077 13.8014 7.74966 14.0002 7.74966C14.1989 7.74966 14.3895 7.67077 14.5302 7.53032L15.2502 6.81032V17.0003C15.2502 17.1992 15.3292 17.39 15.4698 17.5306C15.6105 17.6713 15.8012 17.7503 16.0002 17.7503C16.1991 17.7503 16.3898 17.6713 16.5305 17.5306C16.6711 17.39 16.7502 17.1992 16.7502 17.0003V6.81032L17.4702 7.53032C17.5388 7.604 17.6216 7.66311 17.7136 7.7041C17.8056 7.74509 17.9049 7.76713 18.0056 7.76891C18.1063 7.77068 18.2064 7.75216 18.2998 7.71444C18.3931 7.67672 18.478 7.62057 18.5492 7.54936C18.6204 7.47814 18.6766 7.3933 18.7143 7.29991C18.752 7.20653 18.7705 7.1065 18.7687 7.00579C18.767 6.90509 18.7449 6.80578 18.7039 6.71378C18.6629 6.62178 18.6038 6.53898 18.5302 6.47032L16.5302 4.47032C16.3895 4.32987 16.1989 4.25098 16.0002 4.25098C15.8014 4.25098 15.6108 4.32987 15.4702 4.47032L13.4702 6.47032C13.3297 6.61094 13.2508 6.80157 13.2508 7.00032C13.2508 7.19907 13.3297 7.38969 13.4702 7.53032ZM8.75015 17.1903L9.47015 16.4703C9.53882 16.3966 9.62162 16.3375 9.71362 16.2965C9.80561 16.2555 9.90493 16.2335 10.0056 16.2317C10.1063 16.2299 10.2064 16.2485 10.2998 16.2862C10.3931 16.3239 10.478 16.3801 10.5492 16.4513C10.6204 16.5225 10.6766 16.6073 10.7143 16.7007C10.752 16.7941 10.7705 16.8941 10.7687 16.9948C10.767 17.0955 10.7449 17.1949 10.7039 17.2869C10.6629 17.3789 10.6038 17.4617 10.5302 17.5303L8.53015 19.5303C8.38953 19.6708 8.1989 19.7497 8.00015 19.7497C7.8014 19.7497 7.61078 19.6708 7.47015 19.5303L5.47015 17.5303C5.39647 17.4617 5.33736 17.3789 5.29637 17.2869C5.25538 17.1949 5.23334 17.0955 5.23156 16.9948C5.22979 16.8941 5.24831 16.7941 5.28603 16.7007C5.32375 16.6073 5.3799 16.5225 5.45112 16.4513C5.52233 16.3801 5.60717 16.3239 5.70056 16.2862C5.79394 16.2485 5.89397 16.2299 5.99468 16.2317C6.09538 16.2335 6.19469 16.2555 6.28669 16.2965C6.37869 16.3375 6.46149 16.3966 6.53015 16.4703L7.25015 17.1903V7.00032C7.25015 6.8014 7.32917 6.61064 7.46982 6.46999C7.61048 6.32933 7.80124 6.25032 8.00015 6.25032C8.19907 6.25032 8.38983 6.32933 8.53048 6.46999C8.67114 6.61064 8.75015 6.8014 8.75015 7.00032V17.1903Z" fill="#615D5D"/>
</svg>
