<svg width="24" height="24" viewBox="0 0 24 24" fill="none" xmlns="http://www.w3.org/2000/svg">
<path d="M16.4004 8.29258C16.4004 7.63769 16.9824 7.04632 17.7754 7.04632H18.5254C19.3185 7.04632 19.9004 7.63692 19.9004 8.29258V20.4C19.9004 21.0549 19.3183 21.6463 18.5254 21.6463H17.7754C16.9824 21.6463 16.4004 21.0549 16.4004 20.4V8.29258ZM9.65039 3.54632C9.65039 2.89065 10.2323 2.30005 11.0254 2.30005H11.7754C12.5692 2.30005 13.1504 2.89125 13.1504 3.54632V20.4C13.1504 21.0549 12.5683 21.6463 11.7754 21.6463H11.0254C10.6497 21.6463 10.2959 21.507 10.0403 21.269C9.78596 21.032 9.65039 20.7186 9.65039 20.4V3.54632ZM2.90039 13.0926C2.90039 12.4369 3.48226 11.8463 4.27539 11.8463H5.02539C5.81916 11.8463 6.40039 12.4375 6.40039 13.0926V20.4C6.40039 21.0549 5.81834 21.6463 5.02539 21.6463H4.27539C3.8997 21.6463 3.54592 21.507 3.29034 21.269C3.03596 21.032 2.90039 20.7186 2.90039 20.4V13.0926Z" stroke="#D0D5DD"/>
</svg>
