<svg width="21" height="20" viewBox="0 0 21 20" fill="none" xmlns="http://www.w3.org/2000/svg">
<path d="M6.74999 3.33341C7.21023 3.33342 7.58332 2.96032 7.58332 2.50008C7.58332 2.03984 7.21023 1.66675 6.74999 1.66675H5.49999C3.65904 1.66675 2.16666 3.15913 2.16666 5.00008V15.0001C2.16666 16.841 3.65904 18.3334 5.49999 18.3334H6.74999C7.21023 18.3334 7.58332 17.9603 7.58332 17.5001C7.58332 17.0398 7.21023 16.6667 6.74999 16.6667H5.49999C4.57952 16.6667 3.83332 15.9206 3.83332 15.0001L3.83332 5.00008C3.83332 4.07961 4.57952 3.33341 5.49999 3.33341H6.74999Z" fill="#E9EDF5"/>
<path d="M19.4226 10.5893C19.748 10.2639 19.748 9.73626 19.4226 9.41083L16.0892 6.07749C15.7638 5.75206 15.2362 5.75206 14.9107 6.07749C14.5853 6.40293 14.5853 6.93057 14.9107 7.256L16.8215 9.16675L7.16666 9.16675C6.70642 9.16675 6.33332 9.53984 6.33332 10.0001C6.33332 10.4603 6.70642 10.8334 7.16666 10.8334L16.8215 10.8334L14.9107 12.7442C14.5853 13.0696 14.5853 13.5972 14.9107 13.9227C15.2362 14.2481 15.7638 14.2481 16.0892 13.9227L19.4226 10.5893Z" fill="#E9EDF5"/>
</svg>
