<svg width="76" height="16" viewBox="0 0 76 16" fill="none" xmlns="http://www.w3.org/2000/svg">
<path d="M21.6823 0.752441L17.8542 15.012H13.5243L11.1818 5.62889L8.75602 15.012H4.4261L0.703125 0.752441H4.53122L6.64362 11.1313L9.25784 0.752441H13.1911L15.7021 11.1313L17.8363 0.752441H21.6863H21.6823Z" fill="white"/>
<path d="M26.9742 0.630859C26.9742 1.15856 26.7759 1.60345 26.3772 1.96167C25.9805 2.3199 25.4747 2.49901 24.8598 2.49901C24.245 2.49901 23.7193 2.3199 23.3226 1.96167C22.9259 1.60345 22.7256 1.15856 22.7256 0.630859M26.637 3.67768V15.0118H23.0608V3.67768H26.637Z" fill="white"/>
<path d="M33.96 4.09371C34.5868 3.73548 35.2849 3.55444 36.0525 3.55444V7.23104H35.0687C34.1762 7.23104 33.5058 7.41785 33.0615 7.78956C32.6152 8.16126 32.393 8.81608 32.393 9.75015V15.0118H28.8168V3.67771H32.393V5.56704C32.8115 4.94496 33.3352 4.45385 33.962 4.09563L33.96 4.09371Z" fill="white"/>
<path d="M48.2906 10.1776H40.196C40.2515 10.8825 40.4856 11.4198 40.8962 11.7915C41.3067 12.1633 41.8125 12.3501 42.4135 12.3501C43.3061 12.3501 43.9269 11.9841 44.276 11.2523H48.0823C47.8879 11.9976 47.5349 12.6678 47.0251 13.263C46.5153 13.86 45.8786 14.3261 45.111 14.665C44.3434 15.004 43.4866 15.1735 42.5385 15.1735C41.394 15.1735 40.3765 14.9366 39.4839 14.4628C38.5914 13.989 37.8932 13.3111 37.3914 12.431C36.8896 11.5508 36.6377 10.5224 36.6377 9.34369C36.6377 8.16502 36.8856 7.13658 37.3795 6.25643C37.8753 5.37628 38.5676 4.70029 39.4601 4.22458C40.3527 3.75081 41.3782 3.51392 42.5345 3.51392C43.6909 3.51392 44.6687 3.74503 45.5474 4.20532C46.4261 4.66562 47.1124 5.32236 47.6082 6.17555C48.1041 7.02873 48.3501 8.02444 48.3501 9.16073C48.3501 9.48621 48.3302 9.82517 48.2866 10.1757L48.2906 10.1776ZM44.6925 8.24784C44.6925 7.65273 44.4843 7.17895 44.0658 6.82651C43.6472 6.47407 43.1236 6.2988 42.4968 6.2988C41.8701 6.2988 41.392 6.46829 40.9795 6.80725C40.5689 7.14621 40.313 7.62769 40.2158 8.24977H44.6925V8.24784Z" fill="white"/>
<path d="M68.1728 4.83546C69.0297 5.68864 69.4601 6.87309 69.4601 8.39072V15.012H65.9038V8.85679C65.9038 8.12493 65.7054 7.56064 65.3067 7.16005C64.91 6.76138 64.3626 6.56109 63.6644 6.56109C62.9662 6.56109 62.4208 6.76138 62.0221 7.16005C61.6254 7.55871 61.4251 8.12493 61.4251 8.85679V15.012H57.8687V8.85679C57.8687 8.12493 57.6704 7.56064 57.2717 7.16005C56.875 6.76138 56.3276 6.56109 55.6294 6.56109C54.9312 6.56109 54.3838 6.76138 53.9871 7.16005C53.5904 7.55871 53.39 8.12493 53.39 8.85679V15.012H49.8138V3.67797H53.39V5.09931C53.753 4.62553 54.2271 4.24997 54.8122 3.97264C55.3973 3.69531 56.0598 3.55664 56.7996 3.55664C57.6783 3.55664 58.4618 3.7396 59.152 4.10553C59.8423 4.47146 60.3818 4.99338 60.7725 5.66938C61.1771 5.04731 61.7266 4.53886 62.4247 4.14597C63.1209 3.75308 63.8826 3.55664 64.7057 3.55664C66.1557 3.55664 67.31 3.98227 68.1669 4.83546H68.1728Z" fill="white"/>
<path d="M75.4621 0.630859C75.4621 1.15856 75.2638 1.60345 74.8651 1.96167C74.4684 2.3199 73.9626 2.49901 73.3477 2.49901C72.7329 2.49901 72.2073 2.3199 71.8106 1.96167C71.4139 1.60345 71.2135 1.15856 71.2135 0.630859M75.1249 3.67768V15.0118H71.5487V3.67768H75.1249Z" fill="white"/>
</svg>
