<svg width="24" height="24" viewBox="0 0 24 24" fill="none" xmlns="http://www.w3.org/2000/svg">
<path d="M9.6 19.5H5.4C4.90334 19.5 4.5 19.0967 4.5 18.6V14.4C4.5 13.9033 4.90334 13.5 5.4 13.5H9.6C10.0967 13.5 10.5 13.9033 10.5 14.4V18.6C10.5 19.0967 10.0967 19.5 9.6 19.5Z" stroke="white"/>
<path d="M18.6 19.5H14.4C13.9033 19.5 13.5 19.0967 13.5 18.6V14.4C13.5 13.9033 13.9033 13.5 14.4 13.5H18.6C19.0967 13.5 19.5 13.9033 19.5 14.4V18.6C19.5 19.0967 19.0967 19.5 18.6 19.5Z" stroke="white"/>
<path d="M9.6 10.5H5.4C4.90334 10.5 4.5 10.0967 4.5 9.6V5.4C4.5 4.90334 4.90334 4.5 5.4 4.5H9.6C10.0967 4.5 10.5 4.90334 10.5 5.4V9.6C10.5 10.0967 10.0967 10.5 9.6 10.5Z" stroke="white"/>
<path d="M18.6 10.5H14.4C13.9033 10.5 13.5 10.0967 13.5 9.6V5.4C13.5 4.90334 13.9033 4.5 14.4 4.5H18.6C19.0967 4.5 19.5 4.90334 19.5 5.4V9.6C19.5 10.0967 19.0967 10.5 18.6 10.5Z" stroke="white"/>
</svg>
