<svg width="25" height="24" viewBox="0 0 25 24" fill="none" xmlns="http://www.w3.org/2000/svg">
<path d="M12.5 8.14293C10.3698 8.14293 8.64285 9.86983 8.64285 12.0001C8.64285 14.1303 10.3698 15.8572 12.5 15.8572C13.6561 15.8572 14.6934 15.3486 15.4004 14.5428C15.996 13.864 16.3571 12.9742 16.3571 12.0001C16.3571 11.6058 16.298 11.2254 16.1881 10.8672C15.7041 9.28979 14.236 8.14293 12.5 8.14293ZM9.92857 12.0001C9.92857 10.5799 11.0798 9.42864 12.5 9.42864C13.9202 9.42864 15.0714 10.5799 15.0714 12.0001C15.0714 13.4202 13.9202 14.5715 12.5 14.5715C11.0798 14.5715 9.92857 13.4202 9.92857 12.0001ZM19.108 19.1955L17.6272 18.5455C17.2036 18.3598 16.706 18.387 16.3057 18.6188C15.9054 18.8506 15.65 19.2594 15.5991 19.7199L15.4211 21.3305C15.3844 21.6626 15.1434 21.9358 14.819 22.0131C13.2939 22.3767 11.705 22.3767 10.1799 22.0131C9.8555 21.9358 9.61454 21.6626 9.57783 21.3305L9.40007 19.7223C9.34786 19.2627 9.08103 18.8551 8.68101 18.6241C8.281 18.3931 7.79529 18.366 7.37307 18.5507L5.89203 19.2008C5.58526 19.3355 5.22708 19.2616 4.99834 19.0165C3.93263 17.8746 3.13934 16.5053 2.67818 15.0118C2.57885 14.6901 2.69362 14.3406 2.9642 14.1409L4.2733 13.1746C4.64618 12.9001 4.8664 12.4642 4.8664 12.0006C4.8664 11.537 4.64618 11.1011 4.27281 10.8262L2.96453 9.86156C2.69355 9.66175 2.57868 9.31186 2.67836 8.98989C3.14032 7.49774 3.93402 6.12999 4.99975 4.98956C5.22872 4.74454 5.58707 4.67094 5.89379 4.80594L7.36825 5.45491C7.79251 5.64146 8.28025 5.61328 8.68243 5.37786C9.08287 5.14514 9.34946 4.73596 9.40092 4.27539L9.58 2.66588C9.61739 2.32976 9.86388 2.05462 10.1934 1.9812C10.9486 1.81291 11.7192 1.72348 12.5112 1.71436C13.284 1.72328 14.0538 1.81274 14.8081 1.9813C15.1374 2.05488 15.3837 2.32993 15.421 2.66588L15.6003 4.27662C15.6814 5.01619 16.3046 5.57635 17.0476 5.57713C17.2473 5.57744 17.4448 5.53577 17.6294 5.45397L19.1041 4.80489C19.4108 4.66989 19.7692 4.74349 19.9981 4.98851C21.0639 6.12893 21.8576 7.49668 22.3195 8.98884C22.4191 9.31059 22.3045 9.66026 22.0338 9.86014L20.7267 10.8255C20.3538 11.1 20.1286 11.5359 20.1286 11.9995C20.1286 12.4631 20.3538 12.899 20.7275 13.1741L22.0358 14.1398C22.3065 14.3397 22.4213 14.6894 22.3216 15.0112C21.8599 16.5031 21.0666 17.8708 20.0015 19.0114C19.7727 19.2564 19.4146 19.3302 19.108 19.1955ZM14.4397 19.0257C14.6413 18.4016 15.0619 17.8533 15.6614 17.5062C16.4173 17.0685 17.3459 17.0183 18.1435 17.368L19.2955 17.8737C20.0351 17.0175 20.608 16.0297 20.9841 14.9616L19.9653 14.2095L19.9645 14.209C19.2697 13.6971 18.8429 12.8809 18.8429 11.9995C18.8429 11.1188 19.2692 10.3025 19.9634 9.79092L19.9645 9.7901L20.982 9.03861C20.6058 7.97042 20.0327 6.98261 19.2927 6.12662L18.1504 6.62937L18.1484 6.63025C17.8009 6.78399 17.4262 6.86335 17.0462 6.86285C15.647 6.86104 14.4754 5.80657 14.3224 4.41829L14.3222 4.4168L14.183 3.16548C13.6316 3.06283 13.0723 3.00749 12.5112 3.00017C11.9334 3.00765 11.3704 3.06317 10.818 3.16569L10.6787 4.41818C10.5821 5.28235 10.0823 6.05066 9.3302 6.48847C8.57374 6.93053 7.65245 6.98439 6.8503 6.63168L5.70519 6.12767C4.96527 6.9836 4.39221 7.9713 4.01596 9.03939L5.03583 9.79138C5.73813 10.3088 6.15211 11.1289 6.15211 12.0006C6.15211 12.872 5.73836 13.6922 5.03631 14.2094L4.01566 14.9628C4.39144 16.0324 4.96442 17.0216 5.70461 17.8789L6.85778 17.3727C7.65495 17.024 8.57062 17.0756 9.32404 17.5107C10.0777 17.946 10.5794 18.7131 10.6776 19.5772L10.678 19.5811L10.8167 20.8361C11.9279 21.0547 13.071 21.0547 14.1822 20.8361L14.3212 19.5787C14.342 19.3901 14.3819 19.2047 14.4397 19.0257Z" fill="#D0D5DD"/>
</svg>
