<svg width="24" height="24" viewBox="0 0 24 24" fill="none" xmlns="http://www.w3.org/2000/svg">
<path d="M12.4915 3.00349C7.40153 2.86349 3.23153 6.95349 3.23153 12.0035H2.58151C2.13151 12.0035 1.73151 12.0035 2.23151 12.8535L3.88153 15.6535C4.08153 15.8535 4.39153 15.8535 4.59153 15.6535L6.09151 12.8535C6.16061 12.783 6.2073 12.6936 6.2257 12.5966C6.24409 12.4996 6.23336 12.3994 6.19486 12.3085C6.15636 12.2176 6.09182 12.1401 6.00936 12.0858C5.9269 12.0316 5.83023 12.0029 5.73151 12.0035H5.23153C5.23153 8.10349 8.41153 4.95349 12.3315 5.00349C16.0515 5.05349 19.1815 8.18349 19.2315 11.9035C19.2815 15.8135 16.1315 19.0035 12.2315 19.0035C10.6215 19.0035 9.13153 18.4535 7.95153 17.5235C7.76 17.3726 7.51968 17.2974 7.2763 17.3121C7.03292 17.3269 6.80344 17.4306 6.63153 17.6035C6.21153 18.0235 6.24153 18.7335 6.71153 19.0935C8.28266 20.336 10.2285 21.0092 12.2315 21.0035C17.2815 21.0035 21.3715 16.8335 21.2315 11.7435C21.1015 7.05349 17.1815 3.13349 12.4915 3.00349ZM11.9815 8.00349C11.5715 8.00349 11.2315 8.34349 11.2315 8.75349V12.4335C11.2315 12.7835 11.4215 13.1135 11.7215 13.2935L14.8415 15.1435C15.2015 15.3535 15.6615 15.2335 15.8715 14.8835C16.0815 14.5235 15.9615 14.0635 15.6115 13.8535L12.7315 12.1435V8.74349C12.7315 8.34349 12.3915 8.00349 11.9815 8.00349Z" fill="#D0D5DD"/>
</svg>
