<svg width="24" height="24" viewBox="0 0 24 24" fill="none" xmlns="http://www.w3.org/2000/svg">
<g clip-path="url(#clip0_786_8158)">
<path fill-rule="evenodd" clip-rule="evenodd" d="M12.7073 15.7073C12.5198 15.8948 12.2655 16.0001 12.0003 16.0001C11.7352 16.0001 11.4809 15.8948 11.2933 15.7073L5.63634 10.0503C5.54083 9.9581 5.46465 9.84775 5.41224 9.72575C5.35983 9.60374 5.33225 9.47252 5.33109 9.33974C5.32994 9.20696 5.35524 9.07529 5.40552 8.95239C5.4558 8.82949 5.53006 8.71784 5.62395 8.62395C5.71784 8.53006 5.82949 8.4558 5.95239 8.40552C6.07529 8.35524 6.20696 8.32994 6.33974 8.33109C6.47252 8.33225 6.60374 8.35983 6.72575 8.41224C6.84775 8.46465 6.9581 8.54083 7.05034 8.63634L12.0003 13.5863L16.9503 8.63634C17.1389 8.45418 17.3915 8.35339 17.6537 8.35567C17.9159 8.35795 18.1668 8.46312 18.3522 8.64852C18.5376 8.83393 18.6427 9.08474 18.645 9.34694C18.6473 9.60914 18.5465 9.86174 18.3643 10.0503L12.7073 15.7073Z" fill="#615D5D"/>
</g>
<defs>
<clipPath id="clip0_786_8158">
<rect width="24" height="24" fill="white"/>
</clipPath>
</defs>
</svg>
