<svg width="24" height="24" viewBox="0 0 24 24" fill="none" xmlns="http://www.w3.org/2000/svg">
<path d="M4.5 3.75V11.25H1.5V21H14.25V18H22.5V8.25H17.25V3.75H4.5ZM6 5.25H15.75V8.25H9V11.25H6V5.25ZM10.5 9.75H21V16.5H14.25V11.25H10.5V9.75ZM17.25 11.25V12.75H19.5V11.25H17.25ZM3 12.75H12.75V13.5848L8.22 16.4003C8.11618 16.4639 7.99678 16.4976 7.875 16.4976C7.75322 16.4976 7.63382 16.4639 7.53 16.4003L3 13.5863V12.75ZM12.75 15.3517V19.5H3V15.3525L6.7365 17.6745C7.0875 17.8927 7.482 18.003 7.875 18.003C8.268 18.003 8.66175 17.8927 9.012 17.673L12.75 15.3517Z" fill="#D0D5DD"/>
</svg>
