<svg width="24" height="24" viewBox="0 0 24 24" fill="none" xmlns="http://www.w3.org/2000/svg">
<path d="M3 11.7412C3 8.22974 3 6.47401 3.96279 5.30182C4.11678 5.11434 4.2865 4.94095 4.47002 4.78363C5.61742 3.80005 7.33603 3.80005 10.7732 3.80005H13.5167C16.954 3.80005 18.6726 3.80005 19.82 4.78363C20.0035 4.94095 20.1732 5.11434 20.3272 5.30182C21.29 6.47401 21.29 8.22974 21.29 11.7412C21.29 15.2527 21.29 17.0084 20.3272 18.1806C20.1732 18.3681 20.0035 18.5415 19.82 18.6988C18.6726 19.6824 16.954 19.6824 13.5167 19.6824H10.7732C7.33603 19.6824 5.61742 19.6824 4.47002 18.6988C4.2865 18.5415 4.11678 18.3681 3.96279 18.1806C3 17.0084 3 15.2527 3 11.7412Z" stroke="#D0D5DD" stroke-width="1.2479" stroke-linecap="round" stroke-linejoin="round"/>
<path d="M10.3172 15.7117H11.6889" stroke="#D0D5DD" stroke-width="1.2479" stroke-miterlimit="10" stroke-linecap="round" stroke-linejoin="round"/>
<path d="M14.4312 15.7117L17.632 15.7117" stroke="#D0D5DD" stroke-width="1.2479" stroke-miterlimit="10" stroke-linecap="round" stroke-linejoin="round"/>
<path d="M3 8.76343H21.29" stroke="#D0D5DD" stroke-width="1.2479" stroke-linejoin="round"/>
</svg>
