<svg width="22" height="22" viewBox="0 0 22 22" fill="none" xmlns="http://www.w3.org/2000/svg">
<g clip-path="url(#clip0_9691_55540)">
<path d="M20.299 17.9124C20.2789 19.333 19.1078 20.4373 17.7264 20.4819C17.6792 20.9253 17.3973 21.2984 17.0072 21.4746C19.5306 21.2204 21.5 19.0905 21.5 16.5C21.5 13.9095 19.5306 11.7795 17.0072 11.5254C17.4107 11.7076 17.6985 12.1006 17.7304 12.5641C18.9318 12.7966 19.8417 13.8555 19.8417 15.125C19.8417 15.4835 19.769 15.8264 19.6367 16.139C20.0556 16.608 20.3092 17.2309 20.299 17.9124ZM20.299 17.9124C20.299 17.9125 20.299 17.9126 20.299 17.9128L19.7991 17.9053L20.299 17.9124ZM21.5 6.41667V6.83333H0.5V6.41667C0.5 4.16556 2.33223 2.33333 4.58333 2.33333H5.5H6V1.83333V0.916667C6 0.686809 6.18681 0.5 6.41667 0.5C6.64652 0.5 6.83333 0.686809 6.83333 0.916667V1.83333V2.33333H7.33333H14.6667H15.1667V1.83333V0.916667C15.1667 0.686809 15.3535 0.5 15.5833 0.5C15.8132 0.5 16 0.686808 16 0.916667V1.83333V2.33333H16.5H17.4167C19.6678 2.33333 21.5 4.16556 21.5 6.41667ZM10.4826 21.5H4.58333C2.33223 21.5 0.5 19.6678 0.5 17.4167V9.66667H12.6729C10.2839 11.0098 8.66667 13.5695 8.66667 16.5C8.66667 18.4024 9.3518 20.1443 10.4826 21.5ZM17.2333 14.9833C17.311 14.9833 17.375 15.0473 17.375 15.125C17.375 15.2027 17.311 15.2667 17.2333 15.2667H15.9458V14.9833H17.2333ZM17.8333 17.875C17.8333 17.9527 17.7694 18.0167 17.6917 18.0167H15.9458V17.7333H17.6917C17.7694 17.7333 17.8333 17.7973 17.8333 17.875ZM11.5 16.5C11.5 13.9095 13.4694 11.7796 15.9928 11.5254C15.6031 11.7014 15.3214 12.0739 15.2738 12.5167H14.7125C14.0312 12.5167 13.4792 13.0687 13.4792 13.75V19.25C13.4792 19.9313 14.0312 20.4833 14.7125 20.4833H15.2738C15.3214 20.9261 15.6031 21.2986 15.9928 21.4746C13.4694 21.2204 11.5 19.0905 11.5 16.5Z" stroke="#D0D5DD"/>
</g>
<defs>
<clipPath id="clip0_9691_55540">
<rect width="22" height="22" fill="white"/>
</clipPath>
</defs>
</svg>
