<svg width="24" height="24" viewBox="0 0 24 24" fill="none" xmlns="http://www.w3.org/2000/svg">
<path d="M20.2007 4.25739L20.2007 4.25745L20.2069 4.26365C20.6033 4.66008 20.5989 5.29112 20.2099 5.67354L20.2099 5.67352L20.2069 5.67654L16.3169 9.56654L16.1209 9.76248L16.1832 10.0325L18.2412 18.9536L17.5072 19.6928L13.9436 12.8687L13.6284 12.265L13.1469 12.7465L9.24688 16.6465L9.06947 16.8239L9.10566 17.0722L9.42926 19.2925L9.00794 19.7099L7.5679 17.108L7.49844 16.9825L7.37302 16.9129L4.75736 15.4616L5.179 15.032L7.42723 15.3647L7.67609 15.4015L7.85398 15.2237L11.724 11.3537L12.2039 10.8737L11.6033 10.5576L4.77615 6.96488L5.51692 6.22933L14.438 8.2873L14.708 8.34959L14.904 8.15365L18.794 4.26365L18.794 4.26371L18.8001 4.2574C19.1635 3.881 19.8373 3.881 20.2007 4.25739Z" stroke="#D0D5DD"/>
</svg>
