<svg width="24" height="24" viewBox="0 0 24 24" fill="none" xmlns="http://www.w3.org/2000/svg">
<path d="M6.60059 9.04248H10.2004" stroke="#D0D5DD" stroke-width="1.34115" stroke-linecap="round" stroke-linejoin="round"/>
<path d="M19.9497 9.93359H17.608C16.0015 9.93359 14.7002 11.131 14.7002 12.6084C14.7002 14.0858 16.0024 15.2832 17.6071 15.2832H19.9497C20.0253 15.2832 20.0621 15.2832 20.0936 15.2814C20.5796 15.252 20.9666 14.8962 20.9981 14.4495C20.9999 14.421 20.9999 14.3862 20.9999 14.3176V10.8992C20.9999 10.8305 20.9999 10.7958 20.9981 10.7672C20.9657 10.3205 20.5796 9.9648 20.0936 9.93538C20.0621 9.93359 20.0253 9.93359 19.9497 9.93359Z" stroke="#D0D5DD" stroke-width="1.34115"/>
<path d="M19.1993 9.93333C19.1326 8.26426 18.9191 7.24071 18.2281 6.52029C17.2278 5.47534 15.6169 5.47534 12.3958 5.47534H9.83333C6.61227 5.47534 5.00131 5.47534 4.00108 6.52029C3 7.56436 3 9.24591 3 12.6081C3 15.9703 3 17.6519 4.00108 18.696C5.00131 19.7409 6.61227 19.7409 9.83333 19.7409H12.3958C15.6169 19.7409 17.2278 19.7409 18.2281 18.696C18.9191 17.9755 19.1335 16.952 19.1993 15.2829" stroke="#D0D5DD" stroke-width="1.34115"/>
<path d="M6.60059 5.47531L9.96193 3.26682C10.4346 2.9622 10.9864 2.80005 11.5504 2.80005C12.1143 2.80005 12.6661 2.9622 13.1388 3.26682L16.5001 5.47531" stroke="#D0D5DD" stroke-width="1.34115" stroke-linecap="round"/>
<path d="M17.3936 12.6079H17.4033" stroke="#D0D5DD" stroke-width="1.11762" stroke-linecap="round" stroke-linejoin="round"/>
</svg>
