<svg width="24" height="24" viewBox="0 0 24 24" fill="none" xmlns="http://www.w3.org/2000/svg">
<g clip-path="url(#clip0_9087_9984)">
<path d="M16.2495 12.3C16.2495 12.737 15.8948 13.0917 15.4578 13.0917C15.0208 13.0917 14.6662 12.737 14.6662 12.3C14.6662 11.863 15.0208 11.5084 15.4578 11.5084C15.8948 11.5084 16.2495 11.863 16.2495 12.3ZM7.54117 6.75838C7.97817 6.75838 8.33284 6.40451 8.33284 5.96672C8.33284 5.09351 9.04297 4.38338 9.91617 4.38338C10.7894 4.38338 11.4995 5.09351 11.4995 5.96672C11.4995 6.40451 11.8542 6.75838 12.2912 6.75838C12.7282 6.75838 13.0828 6.40451 13.0828 5.96672C13.0828 4.2203 11.6626 2.80005 9.91617 2.80005C8.16976 2.80005 6.74951 4.2203 6.74951 5.96672C6.74951 6.40451 7.10417 6.75838 7.54117 6.75838ZM20.9995 13.0917V14.675C20.9995 15.5506 20.4073 16.0834 19.7582 16.222C19.2349 17.5314 18.2762 18.6373 17.0412 19.3522V19.425C17.0412 20.7345 15.9756 21.8 14.6662 21.8C13.6338 21.8 12.7535 21.1382 12.4265 20.2167H10.5717C10.2447 21.1382 9.36438 21.8 8.33205 21.8C7.02263 21.8 5.95705 20.7345 5.95705 19.425V19.3625C3.87101 18.16 2.6463 15.8974 2.80384 13.4638C2.85372 12.6895 3.04926 11.9541 3.36197 11.282C2.55684 10.9012 1.99792 10.0818 1.99792 9.13338C1.99792 7.82397 3.06351 6.75838 4.37292 6.75838C4.80992 6.75838 5.16459 7.11226 5.16459 7.55005C5.16459 7.98784 4.80992 8.34172 4.37292 8.34172C3.93592 8.34172 3.58126 8.69638 3.58126 9.13338C3.58126 9.52209 3.86309 9.84588 4.2328 9.91238C5.43692 8.46917 7.28309 7.55005 9.33351 7.55005H13.5792C14.1595 6.37997 15.2433 5.56138 16.6881 5.2178C17.156 5.10776 17.6405 5.21542 18.0189 5.51388C18.4028 5.81788 18.6237 6.2723 18.6237 6.76155V9.70259C19.105 10.2496 19.4898 10.875 19.7574 11.5448C20.4073 11.6833 20.9995 12.2161 20.9995 13.0917ZM19.4162 13.0917H19.1834C18.8335 13.0917 18.5248 12.8613 18.425 12.5257C18.2081 11.7973 17.8075 11.1197 17.2668 10.5647C17.1219 10.4167 17.0412 10.218 17.0412 10.0121V6.76155C16.2693 6.94522 15.248 7.41863 14.853 8.61009C14.7414 8.94497 14.4152 9.17534 14.0693 9.15159C14.0154 9.14922 9.33509 9.13417 9.33509 9.13417C6.72022 9.13417 4.54551 11.0809 4.3848 13.5667C4.25813 15.5213 5.31976 17.3287 7.08992 18.1703C7.36622 18.3017 7.54117 18.5803 7.54117 18.8851V19.4258C7.54117 19.8628 7.89663 20.2175 8.33284 20.2175C8.76905 20.2175 9.12451 19.8628 9.12451 19.4258C9.12451 18.9888 9.47917 18.6342 9.91617 18.6342H13.0828C13.5198 18.6342 13.8745 18.988 13.8745 19.4258C13.8745 19.8636 14.23 20.2175 14.6662 20.2175C15.1024 20.2175 15.4578 19.8628 15.4578 19.4258V18.8764C15.4578 18.5716 15.6328 18.2938 15.9083 18.1623C17.1291 17.5797 18.0458 16.5149 18.425 15.2427C18.5248 14.907 18.8335 14.6766 19.1834 14.6766H19.4162V13.0933V13.0917Z" fill="#D0D5DD"/>
</g>
<defs>
<clipPath id="clip0_9087_9984">
<rect width="19" height="19" fill="white" transform="translate(2 2.80005)"/>
</clipPath>
</defs>
</svg>
