<svg width="71" height="70" viewBox="0 0 71 70" fill="none" xmlns="http://www.w3.org/2000/svg">
<rect x="0.5" width="70" height="70" rx="35" fill="#E5E5E5"/>
<path fill-rule="evenodd" clip-rule="evenodd" d="M49.25 41.0521V28.6871L44.25 30.4721V35.6246C44.25 36.1219 44.0525 36.5988 43.7008 36.9504C43.3492 37.3021 42.8723 37.4996 42.375 37.4996C41.8777 37.4996 41.4008 37.3021 41.0492 36.9504C40.6975 36.5988 40.5 36.1219 40.5 35.6246V31.8121L34.875 33.8221V49.0421L46.8175 44.5621C47.5319 44.294 48.1475 43.8144 48.5822 43.1872C49.0168 42.56 49.2498 41.8152 49.25 41.0521ZM43.615 26.7171L47.615 25.2896C47.4737 25.1956 47.3277 25.1088 47.1775 25.0296L39.2475 21.0671C38.7863 20.8366 38.2826 20.7036 37.7677 20.6765C37.2528 20.6494 36.7378 20.7287 36.255 20.9096L33.9025 21.7921L43.2125 26.4471C43.3625 26.5221 43.4958 26.6121 43.6125 26.7171M29.11 23.5871L38.805 28.4371L33.1225 30.4646L23.61 25.7071C23.79 25.6021 23.9817 25.5113 24.185 25.4346L29.11 23.5871ZM31.125 33.6596L21.75 28.9721V41.6146C21.75 42.3114 21.9442 42.9944 22.3107 43.587C22.6772 44.1796 23.2016 44.6584 23.825 44.9696L31.125 48.6196V33.6596ZM18 28.9471C18 27.8571 18.235 26.8071 18.665 25.8571C18.74 25.5074 18.9135 25.1865 19.165 24.9321C20.02 23.5821 21.3025 22.5121 22.865 21.9246L34.9425 17.3996C35.908 17.0375 36.9378 16.8783 37.9676 16.9321C38.9973 16.9858 40.005 17.2514 40.9275 17.7121L48.8575 21.6771C50.1026 22.3004 51.1495 23.258 51.8811 24.4427C52.6128 25.6273 53.0002 26.9923 53 28.3846V41.0521C52.9999 42.579 52.5339 44.0694 51.6641 45.3243C50.7943 46.5792 49.5622 47.5387 48.1325 48.0746L36.0625 52.5996C35.0967 52.9621 34.0664 53.1215 33.0362 53.0677C32.0059 53.0139 30.9979 52.7482 30.075 52.2871L22.145 48.3221C20.8995 47.6992 19.852 46.7417 19.1199 45.557C18.3878 44.3724 18 43.0072 18 41.6146V28.9471Z" fill="#8C8884"/>
</svg>
