<svg width="57" height="56" viewBox="0 0 57 56" fill="none" xmlns="http://www.w3.org/2000/svg">
<rect x="0.5" width="56" height="56" rx="28" fill="#A2FFCF"/>
<g opacity="0.4">
<path d="M21.8321 26.333C21.5025 26.333 21.1803 26.4308 20.9062 26.6139C20.6321 26.797 20.4185 27.0573 20.2923 27.3619C20.1662 27.6664 20.1332 28.0015 20.1975 28.3248C20.2618 28.6481 20.4205 28.9451 20.6536 29.1782C20.8867 29.4113 21.1837 29.57 21.507 29.6343C21.8303 29.6986 22.1654 29.6656 22.4699 29.5395C22.7745 29.4133 23.0348 29.1997 23.2179 28.9256C23.4011 28.6515 23.4988 28.3293 23.4988 27.9997C23.4988 27.5576 23.3232 27.1337 23.0106 26.8212C22.6981 26.5086 22.2742 26.333 21.8321 26.333ZM28.4988 26.333C28.1692 26.333 27.8469 26.4308 27.5728 26.6139C27.2988 26.797 27.0851 27.0573 26.959 27.3619C26.8329 27.6664 26.7998 28.0015 26.8642 28.3248C26.9285 28.6481 27.0872 28.9451 27.3203 29.1782C27.5534 29.4113 27.8503 29.57 28.1737 29.6343C28.497 29.6986 28.8321 29.6656 29.1366 29.5395C29.4412 29.4133 29.7014 29.1997 29.8846 28.9256C30.0677 28.6515 30.1655 28.3293 30.1655 27.9997C30.1655 27.5576 29.9899 27.1337 29.6773 26.8212C29.3647 26.5086 28.9408 26.333 28.4988 26.333ZM35.1655 26.333C34.8358 26.333 34.5136 26.4308 34.2395 26.6139C33.9654 26.797 33.7518 27.0573 33.6257 27.3619C33.4995 27.6664 33.4665 28.0015 33.5308 28.3248C33.5951 28.6481 33.7539 28.9451 33.987 29.1782C34.22 29.4113 34.517 29.57 34.8403 29.6343C35.1636 29.6986 35.4987 29.6656 35.8033 29.5395C36.1078 29.4133 36.3681 29.1997 36.5513 28.9256C36.7344 28.6515 36.8321 28.3293 36.8321 27.9997C36.8321 27.5576 36.6565 27.1337 36.344 26.8212C36.0314 26.5086 35.6075 26.333 35.1655 26.333ZM28.4988 11.333C26.3101 11.333 24.1428 11.7641 22.1207 12.6017C20.0986 13.4393 18.2613 14.6669 16.7137 16.2146C13.5881 19.3402 11.8321 23.5794 11.8321 27.9997C11.8176 31.8482 13.1501 35.5806 15.5988 38.5497L12.2655 41.883C12.0342 42.1174 11.8775 42.415 11.8153 42.7383C11.753 43.0616 11.7878 43.3962 11.9155 43.6997C12.0539 43.9996 12.2783 44.2515 12.5602 44.4237C12.8421 44.5958 13.1688 44.6802 13.4988 44.6663H28.4988C32.9191 44.6663 37.1583 42.9104 40.2839 39.7848C43.4095 36.6592 45.1655 32.4199 45.1655 27.9997C45.1655 23.5794 43.4095 19.3402 40.2839 16.2146C37.1583 13.089 32.9191 11.333 28.4988 11.333ZM28.4988 41.333H17.5155L19.0655 39.783C19.2229 39.6286 19.3482 39.4446 19.4341 39.2414C19.5199 39.0383 19.5646 38.8202 19.5655 38.5997C19.5592 38.1601 19.3795 37.7407 19.0655 37.433C16.8831 35.2531 15.5241 32.3839 15.22 29.3143C14.9158 26.2448 15.6854 23.1647 17.3975 20.5989C19.1097 18.0331 21.6585 16.1403 24.6097 15.243C27.5609 14.3457 30.7319 14.4993 33.5825 15.6779C36.4331 16.8564 38.7869 18.9868 40.2429 21.7062C41.6988 24.4255 42.1669 27.5656 41.5673 30.5914C40.9678 33.6171 39.3376 36.3414 36.9547 38.3001C34.5717 40.2587 31.5834 41.3306 28.4988 41.333Z" fill="#076E37"/>
</g>
</svg>
