<svg width="24" height="25" viewBox="0 0 24 25" fill="none" xmlns="http://www.w3.org/2000/svg">
<g clip-path="url(#clip0_1563_183)">
<path d="M23.5 12.9918C23.5 6.64048 18.3513 1.49175 12 1.49175C5.64872 1.49175 0.5 6.64048 0.5 12.9918C0.5 18.7317 4.70538 23.4893 10.2031 24.3521V16.316H7.2832V12.9918H10.2031V10.4582C10.2031 7.57597 11.92 5.98394 14.5468 5.98394C15.805 5.98394 17.1211 6.20855 17.1211 6.20855V9.03863H15.671C14.2424 9.03863 13.7969 9.9251 13.7969 10.8345V12.9918H16.9863L16.4765 16.316H13.7969V24.3521C19.2946 23.4893 23.5 18.7317 23.5 12.9918Z" fill="#1877F2"/>
</g>
<defs>
<clipPath id="clip0_1563_183">
<rect width="24" height="24" fill="white" transform="translate(0 0.921875)"/>
</clipPath>
</defs>
</svg>
