<svg width="24" height="25" viewBox="0 0 24 25" fill="none" xmlns="http://www.w3.org/2000/svg">
<g id="socials-icon/color/default/instagram">
<path id="Subtract" d="M8.50078 12.6664C8.50078 10.8726 9.95546 9.41798 11.7504 9.41798C13.5453 9.41798 15.0008 10.8726 15.0008 12.6664C15.0008 14.4603 13.5453 15.9149 11.7504 15.9149C9.95546 15.9149 8.50078 14.4603 8.50078 12.6664ZM6.74368 12.6664C6.74368 15.43 8.98518 17.6701 11.7504 17.6701C14.5156 17.6701 16.7571 15.43 16.7571 12.6664C16.7571 9.90287 14.5156 7.66271 11.7504 7.66271C8.98518 7.66271 6.74368 9.90287 6.74368 12.6664ZM15.7853 7.46431C15.7852 7.69559 15.8537 7.9217 15.9822 8.11405C16.1107 8.30639 16.2934 8.45635 16.5071 8.54494C16.7209 8.63353 16.9561 8.65678 17.1831 8.61175C17.4101 8.56672 17.6186 8.45543 17.7823 8.29196C17.946 8.12849 18.0575 7.92018 18.1028 7.69337C18.148 7.46656 18.1249 7.23143 18.0365 7.01772C17.948 6.80402 17.7981 6.62133 17.6057 6.49277C17.4134 6.3642 17.1872 6.29553 16.9558 6.29544H16.9553C16.6451 6.29558 16.3477 6.41876 16.1283 6.63792C15.9089 6.85709 15.7855 7.15431 15.7853 7.46431ZM7.81123 20.5982C6.86061 20.555 6.34392 20.3967 6.00055 20.263C5.54532 20.0859 5.22051 19.875 4.87902 19.5341C4.53752 19.1933 4.32613 18.869 4.14969 18.4141C4.01583 18.0711 3.85749 17.5545 3.81427 16.6045C3.767 15.5773 3.75757 15.2688 3.75757 12.6665C3.75757 10.0642 3.76778 9.75654 3.81427 8.72853C3.85757 7.77848 4.01708 7.26295 4.14969 6.91893C4.32691 6.46398 4.53799 6.13937 4.87902 5.79807C5.22005 5.45678 5.54454 5.24552 6.00055 5.06918C6.34376 4.93541 6.86061 4.77716 7.81123 4.73397C8.839 4.68673 9.14774 4.6773 11.7504 4.6773C14.353 4.6773 14.6621 4.68751 15.6907 4.73397C16.6413 4.77724 17.1572 4.93666 17.5014 5.06918C17.9566 5.24552 18.2814 5.45725 18.6229 5.79807C18.9644 6.1389 19.175 6.46398 19.3523 6.91893C19.4861 7.26194 19.6445 7.77848 19.6877 8.72853C19.7349 9.75654 19.7444 10.0642 19.7444 12.6665C19.7444 15.2688 19.7349 15.5765 19.6877 16.6045C19.6444 17.5545 19.4853 18.0709 19.3523 18.4141C19.175 18.869 18.964 19.1936 18.6229 19.5341C18.2819 19.8747 17.9566 20.0859 17.5014 20.263C17.1582 20.3968 16.6413 20.5551 15.6907 20.5982C14.6629 20.6455 14.3542 20.6549 11.7504 20.6549C9.14657 20.6549 8.83869 20.6455 7.81123 20.5982ZM7.7305 2.98089C6.69251 3.02813 5.98323 3.19262 5.36381 3.4335C4.72231 3.68226 4.17925 4.01599 3.63658 4.55748C3.09392 5.09896 2.76084 5.64255 2.51193 6.28366C2.2709 6.90311 2.10632 7.61157 2.05905 8.64894C2.011 9.68794 2 10.0201 2 12.6664C2 15.3127 2.011 15.6449 2.05905 16.6839C2.10632 17.7213 2.2709 18.4297 2.51193 19.0492C2.76084 19.6899 3.09399 20.2341 3.63658 20.7754C4.17917 21.3166 4.72231 21.6499 5.36381 21.8993C5.9844 22.1402 6.69251 22.3047 7.7305 22.3519C8.77067 22.3992 9.1025 22.411 11.7504 22.411C14.3983 22.411 14.7307 22.4 15.7703 22.3519C16.8083 22.3047 17.5172 22.1402 18.137 21.8993C18.7781 21.6499 19.3215 21.3168 19.8642 20.7754C20.4069 20.2339 20.7392 19.6899 20.9888 19.0492C21.2299 18.4297 21.3952 17.7213 21.4417 16.6839C21.489 15.6441 21.5 15.3127 21.5 12.6664C21.5 10.0201 21.489 9.68794 21.4417 8.64894C21.3945 7.6115 21.2299 6.90272 20.9888 6.28366C20.7392 5.64294 20.406 5.09982 19.8642 4.55748C19.3224 4.01513 18.7781 3.68226 18.1378 3.4335C17.5172 3.19262 16.8083 3.02735 15.7711 2.98089C14.7314 2.93365 14.3991 2.92188 11.7512 2.92188C9.10328 2.92188 8.77067 2.93287 7.7305 2.98089Z" fill="url(#paint0_linear_1563_185)"/>
</g>
<defs>
<linearGradient id="paint0_linear_1563_185" x1="21.1252" y1="22.411" x2="1.63613" y2="2.91096" gradientUnits="userSpaceOnUse">
<stop stop-color="#FBE18A"/>
<stop offset="0.21" stop-color="#FCBB45"/>
<stop offset="0.38" stop-color="#F75274"/>
<stop offset="0.52" stop-color="#D53692"/>
<stop offset="0.74" stop-color="#8F39CE"/>
<stop offset="1" stop-color="#5B4FE9"/>
</linearGradient>
</defs>
</svg>
