<svg width="24" height="25" viewBox="0 0 24 25" fill="none" xmlns="http://www.w3.org/2000/svg">
<g id="socials-icon/color/default/linkedin">
<path id="Subtract" fill-rule="evenodd" clip-rule="evenodd" d="M3.44117 2.92188C2.64548 2.92188 2 3.5477 2 4.31871V21.0255C2 21.7966 2.64556 22.4219 3.44117 22.4219H20.0588C20.8548 22.4219 21.5 21.7965 21.5 21.0253V4.31871C21.5 3.5477 20.8548 2.92188 20.0588 2.92188H3.44117ZM7.9257 10.4619V19.2409H5.00771V10.4619H7.9257ZM8.11804 7.7469C8.11804 8.58936 7.48467 9.26348 6.46732 9.26348L6.4482 9.2634C5.46886 9.2634 4.83572 8.58928 4.83572 7.74682C4.83572 6.88524 5.48798 6.22994 6.48667 6.22994C7.48467 6.22994 8.099 6.88524 8.11804 7.7469ZM12.4586 19.2409H9.54085C9.54085 19.2409 9.57909 11.2858 9.54101 10.4622H12.4588V11.7048C12.8467 11.1068 13.5409 10.2561 15.0887 10.2561C17.0084 10.2561 18.4478 11.5109 18.4478 14.2073V19.2409H15.5301V14.5449C15.5301 13.3646 15.1076 12.5596 14.052 12.5596C13.2457 12.5596 12.7656 13.1025 12.5547 13.6269C12.4777 13.8141 12.4586 14.0768 12.4586 14.3388V19.2409Z" fill="#006699"/>
</g>
</svg>
