<svg width="24" height="25" viewBox="0 0 24 25" fill="none" xmlns="http://www.w3.org/2000/svg">
<g id="socials-icon/color/default/twitter">
<path id="Subtract" d="M21.4133 6.85285C20.7825 7.12432 20.1194 7.31335 19.4402 7.41528C19.7577 7.36085 20.2249 6.78935 20.4109 6.55803C20.6934 6.20911 20.9087 5.81078 21.0459 5.38329C21.0459 5.35154 21.0776 5.30618 21.0459 5.28351C21.0299 5.27477 21.0119 5.2702 20.9937 5.2702C20.9755 5.2702 20.9576 5.27477 20.9416 5.28351C20.2041 5.68284 19.4193 5.98762 18.6057 6.19064C18.5773 6.19931 18.5471 6.20008 18.5184 6.19289C18.4896 6.1857 18.4633 6.17081 18.4424 6.14982C18.3791 6.07441 18.3109 6.0032 18.2383 5.93665C17.9064 5.63931 17.5299 5.39595 17.1225 5.21547C16.5726 4.98986 15.9786 4.89215 15.3853 4.92972C14.8097 4.96608 14.2478 5.12047 13.7344 5.38329C13.2288 5.66039 12.7845 6.03683 12.4281 6.49C12.0532 6.95643 11.7825 7.49773 11.6343 8.07749C11.5121 8.62896 11.4983 9.19893 11.5935 9.75569C11.5935 9.85094 11.5935 9.86455 11.5119 9.85094C8.27792 9.3747 5.62455 8.22717 3.45649 5.76429C3.36124 5.65543 3.31135 5.65543 3.23424 5.76429C2.29082 7.19757 2.74892 9.46541 3.9282 10.5857C4.08695 10.7354 4.25023 10.8805 4.42259 11.0166C3.8819 10.9782 3.35441 10.8317 2.87138 10.5857C2.78067 10.5268 2.73078 10.5585 2.72624 10.6674C2.71338 10.8183 2.71338 10.97 2.72624 11.1209C2.82088 11.8442 3.10591 12.5293 3.55219 13.1063C3.99847 13.6833 4.58998 14.1314 5.26623 14.4048C5.43108 14.4754 5.60286 14.5286 5.77876 14.5635C5.27821 14.6621 4.76484 14.6774 4.2593 14.6089C4.15045 14.5862 4.10963 14.6452 4.15045 14.7495C4.81719 16.5638 6.26408 17.1171 7.32543 17.4255C7.47057 17.4482 7.61571 17.4482 7.779 17.4845C7.779 17.4845 7.779 17.4845 7.75178 17.5117C7.43882 18.0832 6.17336 18.4688 5.5928 18.6683C4.53311 19.049 3.40329 19.1944 2.28175 19.0947C2.10485 19.0675 2.06403 19.072 2.01868 19.0947C1.97332 19.1174 2.01868 19.1672 2.06857 19.2126C2.29535 19.3623 2.52214 19.4938 2.75799 19.6208C3.46014 20.0038 4.20245 20.308 4.97141 20.528C8.95374 21.6256 13.435 20.8182 16.424 17.8474C18.7735 15.516 19.599 12.3002 19.599 9.07988C19.599 8.95741 19.7487 8.88484 19.8349 8.82134C20.4293 8.3582 20.9533 7.81124 21.3906 7.19757C21.4663 7.10609 21.5052 6.98962 21.4995 6.871C21.4995 6.80296 21.4995 6.81657 21.4133 6.85285Z" fill="#33CCFF"/>
</g>
</svg>
