<svg width="28" height="28" viewBox="0 0 28 28" fill="none" xmlns="http://www.w3.org/2000/svg">
<rect width="28" height="28" rx="14" fill="#EAEAEA"/>
<path d="M7.33398 8.66699H20.667C21.1311 8.66699 21.5787 8.82855 21.9346 9.12012L22.0811 9.25293C22.4561 9.628 22.667 10.1366 22.667 10.667V17.334C22.6669 17.798 22.5064 18.2458 22.2148 18.6016L22.0811 18.748C21.706 19.1229 21.1973 19.334 20.667 19.334H7.33398C6.86987 19.334 6.42229 19.1724 6.06641 18.8809L5.91992 18.748C5.54493 18.3731 5.33407 17.8643 5.33398 17.334V10.667L5.34375 10.4697C5.38265 10.0771 5.53701 9.70459 5.78711 9.39941L5.91992 9.25293C6.29499 8.87786 6.80355 8.66699 7.33398 8.66699ZM7.33398 9.33398C7.02461 9.33398 6.7265 9.4414 6.48926 9.63574L6.3916 9.72461C6.14155 9.97466 6.00098 10.3134 6.00098 10.667V17.334C6.00105 17.6433 6.10836 17.9415 6.30273 18.1787L6.3916 18.2764C6.64163 18.5263 6.98044 18.667 7.33398 18.667H20.667C20.9765 18.667 21.2754 18.5597 21.5127 18.3652L21.6104 18.2764C21.8602 18.0264 22.0009 17.6874 22.001 17.334V10.667C22.001 10.3135 21.8602 9.97463 21.6104 9.72461C21.3603 9.47456 21.0206 9.33398 20.667 9.33398H7.33398ZM14.001 12C14.5313 12.0001 15.04 12.2109 15.415 12.5859C15.79 12.9609 16.0009 13.4697 16.001 14L15.9951 14.1484C15.9733 14.4427 15.8866 14.7285 15.7412 14.9854L15.6641 15.1113C15.4718 15.3991 15.208 15.6312 14.9004 15.7861L14.7656 15.8477C14.446 15.98 14.0985 16.0273 13.7568 15.9854L13.6104 15.9619C13.2224 15.8847 12.8666 15.6937 12.5869 15.4141C12.3072 15.1344 12.1162 14.7785 12.0391 14.3906C11.9619 14.0027 12.002 13.6008 12.1533 13.2354C12.2858 12.9156 12.498 12.6358 12.7695 12.4238L12.8896 12.3369C13.2185 12.1173 13.6055 12 14.001 12ZM13.7402 12.6924C13.4817 12.7439 13.244 12.8712 13.0576 13.0576C12.9178 13.1975 12.8112 13.3661 12.7451 13.5508L12.6934 13.7402C12.6547 13.9343 12.6594 14.1338 12.707 14.3242L12.7686 14.5107C12.8442 14.6934 12.9592 14.8565 13.1045 14.9883L13.2598 15.1094C13.479 15.2558 13.7373 15.334 14.001 15.334C14.3104 15.3339 14.6085 15.2257 14.8457 15.0312L14.9434 14.9434C15.1934 14.6933 15.334 14.3536 15.334 14C15.3339 13.8023 15.2898 13.608 15.2061 13.4307L15.1094 13.2598C14.9995 13.0954 14.8547 12.9583 14.6865 12.8574L14.5107 12.7686C14.328 12.6929 14.1315 12.6594 13.9355 12.6689L13.7402 12.6924ZM9.00098 13.667C9.06709 13.6671 9.13131 13.6865 9.18555 13.7227L9.23633 13.7646C9.29876 13.8271 9.3339 13.9117 9.33398 14C9.33398 14.0329 9.32874 14.0656 9.31934 14.0967L9.27734 14.1855C9.24073 14.2402 9.18875 14.2834 9.12793 14.3086C9.09754 14.3211 9.06557 14.3289 9.0332 14.332L8.93555 14.3271C8.90326 14.3207 8.87247 14.3093 8.84375 14.2939L8.76465 14.2363C8.74133 14.213 8.72241 14.186 8.70703 14.1572L8.67383 14.0654C8.66099 14.0009 8.66727 13.9339 8.69238 13.873C8.70499 13.8426 8.72249 13.8143 8.74316 13.7891L8.81543 13.7236C8.87025 13.687 8.93505 13.667 9.00098 13.667ZM19.001 13.667C19.0671 13.6671 19.1313 13.6865 19.1855 13.7227L19.2363 13.7646C19.2988 13.8271 19.3339 13.9117 19.334 14C19.334 14.0329 19.3287 14.0656 19.3193 14.0967L19.2773 14.1855C19.2591 14.2129 19.2371 14.2372 19.2119 14.2578L19.1279 14.3086C19.0671 14.3337 19.0001 14.34 18.9355 14.3271C18.8709 14.3143 18.8112 14.2829 18.7646 14.2363C18.7413 14.213 18.7224 14.186 18.707 14.1572L18.6738 14.0654C18.661 14.0009 18.6673 13.9339 18.6924 13.873C18.7176 13.8122 18.7607 13.7603 18.8154 13.7236C18.8702 13.687 18.935 13.667 19.001 13.667Z" fill="#ACACAC" stroke="#ACACAC"/>
</svg>
