<svg width="29" height="28" viewBox="0 0 29 28" fill="none" xmlns="http://www.w3.org/2000/svg">
<rect x="0.666016" width="28" height="28" rx="14" fill="#EAEAEA"/>
<path d="M12.166 6.49967V4.83301H17.166V6.49967H12.166ZM13.8327 15.6663H15.4993V10.6663H13.8327V15.6663ZM14.666 22.333C13.6382 22.333 12.6693 22.1352 11.7593 21.7397C10.8493 21.3441 10.0543 20.8058 9.37435 20.1247C8.69435 19.4436 8.15629 18.6483 7.76018 17.7388C7.36407 16.8294 7.16602 15.8608 7.16602 14.833C7.16602 13.8052 7.36407 12.8363 7.76018 11.9263C8.15629 11.0163 8.69435 10.2213 9.37435 9.54134C10.0543 8.86134 10.8496 8.32329 11.7602 7.92717C12.6707 7.53106 13.6393 7.33301 14.666 7.33301C15.5271 7.33301 16.3535 7.4719 17.1452 7.74967C17.9368 8.02745 18.6799 8.43023 19.3743 8.95801L20.541 7.79134L21.7077 8.95801L20.541 10.1247C21.0688 10.8191 21.4716 11.5622 21.7493 12.3538C22.0271 13.1455 22.166 13.9719 22.166 14.833C22.166 15.8608 21.968 16.8297 21.5718 17.7397C21.1757 18.6497 20.6377 19.4447 19.9577 20.1247C19.2777 20.8047 18.4824 21.343 17.5718 21.7397C16.6613 22.1363 15.6927 22.3341 14.666 22.333ZM14.666 20.6663C16.2771 20.6663 17.6521 20.0969 18.791 18.958C19.9299 17.8191 20.4993 16.4441 20.4993 14.833C20.4993 13.2219 19.9299 11.8469 18.791 10.708C17.6521 9.56912 16.2771 8.99967 14.666 8.99967C13.0549 8.99967 11.6799 9.56912 10.541 10.708C9.40213 11.8469 8.83268 13.2219 8.83268 14.833C8.83268 16.4441 9.40213 17.8191 10.541 18.958C11.6799 20.0969 13.0549 20.6663 14.666 20.6663Z" fill="#ACACAC"/>
</svg>
