<svg width="29" height="28" viewBox="0 0 29 28" fill="none" xmlns="http://www.w3.org/2000/svg">
<rect x="0.333984" width="28" height="28" rx="14" fill="#EAEAEA"/>
<path d="M21.0013 21.5V19.8333C21.0013 18.9493 20.6501 18.1014 20.025 17.4763C19.3999 16.8512 18.552 16.5 17.668 16.5H11.0013C10.1172 16.5 9.2694 16.8512 8.64428 17.4763C8.01916 18.1014 7.66797 18.9493 7.66797 19.8333V21.5" stroke="#ACACAC" stroke-width="2" stroke-linecap="round" stroke-linejoin="round"/>
<path d="M14.3333 13.1667C16.1743 13.1667 17.6667 11.6743 17.6667 9.83333C17.6667 7.99238 16.1743 6.5 14.3333 6.5C12.4924 6.5 11 7.99238 11 9.83333C11 11.6743 12.4924 13.1667 14.3333 13.1667Z" stroke="#979797" stroke-width="2" stroke-linecap="round" stroke-linejoin="round"/>
</svg>
