<svg width="20" height="20" viewBox="0 0 20 20" fill="none" xmlns="http://www.w3.org/2000/svg">
<path d="M10 0.5C11.2476 0.5 12.4831 0.745237 13.6357 1.22266C14.7883 1.70008 15.8356 2.40008 16.7178 3.28223C17.5999 4.16437 18.2999 5.21168 18.7773 6.36426C19.2548 7.51685 19.5 8.75244 19.5 10C19.5 11.8789 18.9433 13.7161 17.8994 15.2783C16.8556 16.8405 15.3716 18.0583 13.6357 18.7773C11.8998 19.4964 9.9893 19.6839 8.14648 19.3174C6.41905 18.9737 4.82349 18.1572 3.53613 16.9619L3.28223 16.7178C2.03672 15.4723 1.16414 13.9064 0.757812 12.1973L0.682617 11.8535C0.338989 10.126 0.483032 8.33924 1.09473 6.69238L1.22363 6.36426C1.89779 4.73691 3.00989 3.33118 4.43359 2.30176L4.72168 2.10059C6.28395 1.05671 8.12108 0.500001 10 0.5ZM13.2529 2.14746C11.7968 1.54431 10.2035 1.35799 8.65137 1.60742L8.3418 1.66309C6.69296 1.99106 5.178 2.80051 3.98926 3.98926C2.87481 5.1037 2.09401 6.50484 1.73047 8.03418L1.66309 8.3418C1.33514 9.9906 1.50413 11.6998 2.14746 13.2529C2.79078 14.8059 3.87973 16.1335 5.27734 17.0674C6.67516 18.0014 8.31886 18.5 10 18.5C12.1135 18.5 14.1458 17.7127 15.7051 16.3008L16.0107 16.0107C17.6048 14.4167 18.5 12.2543 18.5 10C18.5 8.31886 18.0014 6.67516 17.0674 5.27734C16.1335 3.87973 14.8059 2.79078 13.2529 2.14746ZM10 9.5C10.1326 9.5 10.2597 9.55272 10.3535 9.64648C10.4473 9.74025 10.5 9.86739 10.5 10V14C10.5 14.1326 10.4473 14.2597 10.3535 14.3535C10.2597 14.4473 10.1326 14.5 10 14.5C9.86739 14.5 9.74025 14.4473 9.64648 14.3535C9.55272 14.2597 9.5 14.1326 9.5 14V10C9.5 9.86739 9.55272 9.74025 9.64648 9.64648C9.74025 9.55272 9.86739 9.5 10 9.5ZM10.0967 5.51465L10.1904 5.54297L10.1992 5.5459C10.2578 5.56863 10.3113 5.60288 10.3574 5.64551C10.4459 5.74311 10.4958 5.86912 10.499 6.00098C10.4981 6.08167 10.4787 6.16134 10.4404 6.23242C10.4016 6.30443 10.3454 6.36575 10.2773 6.41113C10.2093 6.45647 10.1311 6.48404 10.0498 6.49219C9.96831 6.50029 9.88532 6.48815 9.80957 6.45703H9.80859C9.74566 6.43022 9.68822 6.39262 9.63672 6.34766C9.59477 6.30308 9.56033 6.25202 9.53711 6.19531C9.51223 6.1344 9.49962 6.06872 9.5 6.00293V5.9873C9.49863 5.93421 9.50957 5.88104 9.53223 5.83301L9.53711 5.82324L9.54102 5.8125C9.56726 5.74973 9.60418 5.6922 9.64844 5.64062C9.66875 5.62243 9.68997 5.60543 9.71289 5.59082L9.80078 5.5459L9.80957 5.54297C9.90097 5.50542 10.0011 5.49581 10.0967 5.51465Z" fill="#F98D31" stroke="#F98D31"/>
</svg>
